<svg xmlns="http://www.w3.org/2000/svg" xmlns:xlink="http://www.w3.org/1999/xlink" viewBox="0 0 375 73.49" width="375" height="73.49" preserveAspectRatio="xMaxYMid meet"><defs><style>.cls-1,.cls-2{fill:none;}.cls-2{clip-rule:evenodd;}.cls-3{clip-path:url(#clip-path);}.cls-4{clip-path:url(#clip-path-2);}.cls-5{fill:#3d1c47;}.cls-6{clip-path:url(#clip-path-3);}.cls-7{clip-path:url(#clip-path-5);}.cls-8{clip-path:url(#clip-path-7);}.cls-9{clip-path:url(#clip-path-9);}.cls-10{clip-path:url(#clip-path-11);}.cls-11{clip-path:url(#clip-path-13);}.cls-12{clip-path:url(#clip-path-15);}.cls-13{clip-path:url(#clip-path-17);}.cls-14{clip-path:url(#clip-path-19);}.cls-15{clip-path:url(#clip-path-21);}.cls-16{clip-path:url(#clip-path-23);}</style><clipPath id="clip-path" transform="translate(4.68 4.68)"><rect class="cls-1" x="84.91" y="19.5" width="6.02" height="24.51"/></clipPath><clipPath id="clip-path-2" transform="translate(4.68 4.68)"><rect class="cls-1" x="-1048.34" y="-209.65" width="1497.24" height="842.2"/></clipPath><clipPath id="clip-path-3" transform="translate(4.68 4.68)"><polygon class="cls-2" points="128.23 44.01 123.27 44.01 110.87 29.8 110.87 44.01 104.81 44.01 104.81 19.5 109.84 19.5 122.23 34.13 122.23 19.5 128.23 19.5 128.23 44.01"/></clipPath><clipPath id="clip-path-5" transform="translate(4.68 4.68)"><path class="cls-2" d="M167.49,34.82a11.31,11.31,0,0,1-4.2,7.12,12.94,12.94,0,0,1-8.16,2.61,12.63,12.63,0,0,1-9.23-3.71,12.25,12.25,0,0,1-3.8-9.1,12.25,12.25,0,0,1,3.8-9.1,12.66,12.66,0,0,1,9.23-3.7,13,13,0,0,1,8,2.57,11,11,0,0,1,4.3,6.84l-5.93,1.38a6.2,6.2,0,0,0-6.4-5.27,6.68,6.68,0,0,0-5,2.07,7.2,7.2,0,0,0-2,5.21,7.25,7.25,0,0,0,2,5.21,6.6,6.6,0,0,0,5,2.1,6.38,6.38,0,0,0,4.11-1.38,7,7,0,0,0,2.32-4.05Z"/></clipPath><clipPath id="clip-path-7" transform="translate(4.68 4.68)"><path class="cls-2" d="M199.44,37a7.09,7.09,0,0,0,2-5.18,7.26,7.26,0,0,0-2-5.24,7.12,7.12,0,0,0-10,0,7.2,7.2,0,0,0-2,5.24,7.09,7.09,0,0,0,2,5.18,7.12,7.12,0,0,0,10,0m4.24-14.28a12.36,12.36,0,0,1,3.8,9.1,12.1,12.1,0,0,1-3.8,9,13.4,13.4,0,0,1-18.51,0,12.22,12.22,0,0,1-3.8-9,12.21,12.21,0,0,1,3.8-9.1,13.35,13.35,0,0,1,18.51,0"/></clipPath><clipPath id="clip-path-9" transform="translate(4.68 4.68)"><path class="cls-2" d="M247.09,29.55a19.71,19.71,0,0,1,.15,2.22,12.51,12.51,0,0,1-3.57,9.17,12.28,12.28,0,0,1-9.1,3.61,12.94,12.94,0,0,1-9.39-3.71,12.16,12.16,0,0,1-3.83-9.1,12.25,12.25,0,0,1,3.8-9.1,12.73,12.73,0,0,1,9.32-3.7,14.42,14.42,0,0,1,7.47,1.91,10.07,10.07,0,0,1,4.49,5.43L240.62,28c-1.19-2.36-3.23-3.52-6.15-3.52a6.72,6.72,0,0,0-5,2.07,7.1,7.1,0,0,0-2,5.18,7.15,7.15,0,0,0,2.07,5.21,7.53,7.53,0,0,0,9.23.94,6,6,0,0,0,2.38-3.23h-7.53V29.51h13.5Z"/></clipPath><clipPath id="clip-path-11" transform="translate(4.68 4.68)"><polygon class="cls-2" points="284.53 44.01 279.54 44.01 267.15 29.8 267.15 44.01 261.12 44.01 261.12 19.5 266.14 19.5 278.54 34.13 278.54 19.5 284.53 19.5 284.53 44.01"/></clipPath><clipPath id="clip-path-13" transform="translate(4.68 4.68)"><rect class="cls-1" x="298.41" y="19.5" width="6.02" height="24.51"/></clipPath><clipPath id="clip-path-15" transform="translate(4.68 4.68)"><path class="cls-2" d="M331.68,26.31l-3.11,8h6.25ZM338.55,44l-1.72-4.45H326.5L324.78,44h-6.47L328.54,19.5h6.18L345,44Z"/></clipPath><clipPath id="clip-path-17" transform="translate(4.68 4.68)"><path class="cls-2" d="M32.07,0A32.07,32.07,0,1,0,64.13,32.07,32.1,32.1,0,0,0,32.07,0m0,60A27.95,27.95,0,1,1,60,32.07,28,28,0,0,1,32.07,60"/></clipPath><clipPath id="clip-path-19" transform="translate(4.68 4.68)"><path class="cls-2" d="M32.07,9A23.05,23.05,0,0,0,17.86,50.22a20.09,20.09,0,0,1,2.22-3.49,18.95,18.95,0,1,1,24,0,20.26,20.26,0,0,1,2.23,3.48A23.06,23.06,0,0,0,32.07,9"/></clipPath><clipPath id="clip-path-21" transform="translate(4.68 4.68)"><path class="cls-2" d="M32.07,18.09a14,14,0,0,0-8.35,25.18,15,15,0,0,1,4.42-2.17,9.85,9.85,0,1,1,7.88,0,14.91,14.91,0,0,1,4.43,2.15,14,14,0,0,0-8.38-25.15"/></clipPath><clipPath id="clip-path-23" transform="translate(4.68 4.68)"><path class="cls-2" d="M357.81,20.71h-2.87v4.82H353V20.71h-2.88V18.88h7.7Zm7.83,4.82h-2v-3l-1.46,2.14v0h-1v0l-1.48-2.16,0,3h-1.93V18.88h1.45l2.46,3.4,2.44-3.4h1.48Z"/></clipPath></defs><g id="Layer_2" data-name="Layer 2"><g id="Layer_1-2" data-name="Layer 1"><g class="cls-3"><g class="cls-4"><rect class="cls-5" x="84.91" y="19.5" width="15.38" height="33.87"/></g></g><g class="cls-6"><g class="cls-4"><rect class="cls-5" x="104.82" y="19.5" width="32.77" height="33.87"/></g></g><g class="cls-7"><g class="cls-4"><rect class="cls-5" x="142.1" y="18.94" width="34.74" height="34.97"/></g></g><g class="cls-8"><g class="cls-4"><rect class="cls-5" x="181.37" y="18.94" width="35.47" height="34.93"/></g></g><g class="cls-9"><g class="cls-4"><rect class="cls-5" x="221.35" y="18.94" width="35.25" height="34.97"/></g></g><g class="cls-10"><g class="cls-4"><rect class="cls-5" x="261.12" y="19.5" width="32.77" height="33.87"/></g></g><g class="cls-11"><g class="cls-4"><rect class="cls-5" x="298.41" y="19.5" width="15.38" height="33.87"/></g></g><g class="cls-12"><g class="cls-4"><rect class="cls-5" x="318.31" y="19.5" width="36" height="33.87"/></g></g><g class="cls-13"><g class="cls-4"><rect class="cls-5" width="73.49" height="73.49"/></g></g><g class="cls-14"><g class="cls-4"><rect class="cls-5" x="9" y="9" width="55.49" height="50.58"/></g></g><g class="cls-15"><g class="cls-4"><rect class="cls-5" x="18.09" y="18.09" width="37.3" height="34.53"/></g></g><g class="cls-16"><g class="cls-4"><rect class="cls-5" x="350.11" y="18.88" width="24.88" height="16.01"/></g></g></g></g></svg>