<svg xmlns="http://www.w3.org/2000/svg" viewBox="0 0 520.29 117.44"><defs><style>.cls-1{fill:#fff;}.cls-2{fill:#a00a0b;}</style></defs><g id="Camada_2" data-name="Camada 2"><g id="logo"><path class="cls-1" d="M59.24,85.59H33.33a15.74,15.74,0,0,1-1.68-.08c-2.79-.28-4.13-1.54-4.32-4.33-.28-4,0-7.92-.14-11.87,0-1,.27-1.18,1.19-1.17,6.68,0,13.36,0,20,0,2.51,0,3.43-.93,3.43-3.48V50.75c0-2.91-.8-3.72-3.67-3.72H28.26c-.49,0-1.07.17-1.05-.7.07-3.68-.17-7.36.12-11,.22-2.84,1.59-4.24,4.45-4.31,4.83-.12,9.67,0,14.51,0v-.09H59.61c2.37,0,3.36-1,3.36-3.33q0-7.5,0-15c0-2.52-.51-3.18-3-3.5C56.52,8.61,53.1,8.27,49.68,8c-4.14-.37-8.29-.49-12.45-.57A64.81,64.81,0,0,0,18.82,9.21c-6.8,1.86-12.28,5.5-15.53,12A34.14,34.14,0,0,0,0,36.51C0,50.67,0,64.83,0,79a48.31,48.31,0,0,0,.7,8.58c1.58,8.79,6,15.35,14.57,18.74A39.69,39.69,0,0,0,26,108.75a120.68,120.68,0,0,0,14.73.28,132.13,132.13,0,0,0,19.57-1.62C62.4,107,63,106.3,63,104.17q0-7.44,0-14.88C63,86.46,62.1,85.59,59.24,85.59Z"/><path class="cls-1" d="M303.57,12.11c0-2.36-.87-3.24-3.25-3.24H234.46c-2.37,0-3.25.89-3.25,3.26V27.37c0,2.68.82,3.5,3.5,3.5,6,0,12.08,0,18.12,0,1.07,0,1.37.24,1.37,1.35q-.06,35.7,0,71.38c0,.32,0,.64,0,1,.11,2,1.15,3,3.18,3h20.28c2.37,0,3.33-1,3.33-3.33v-36q0-18.12,0-36.23c0-.92.21-1.2,1.17-1.19,6,0,12.07,0,18.11,0,2.47,0,3.34-.86,3.34-3.29Z"/><path class="cls-1" d="M218.18,8.85q-12.35,0-24.71,0c-1.07,0-1.28.27-1.28,1.31q0,24.11,0,48.22t0,48.22c0,1,.24,1.23,1.23,1.22q12.42-.06,24.83,0c.83,0,1.06-.2,1.06-1q0-48.39,0-96.8C219.32,9,219.06,8.85,218.18,8.85Z"/><path class="cls-1" d="M166.85,83q-6.66-11.07-13.37-22.22l-.3.39Q143.55,77,133.91,92.86a1.29,1.29,0,0,0,.14,1.6c2.82,4.59,5.61,9.19,8.43,13.78,1.36,2.21,2.61,4.48,4.13,6.59a4.64,4.64,0,0,0,4.14,2.12c10.35-.08,20.71,0,31.06,0,.64,0,1.28,0,1.92,0a1.82,1.82,0,0,0,1.81-1.84,4,4,0,0,0-.86-2.44Z"/><path class="cls-1" d="M140.39,34.53l13,21.51.52-.83,31-51.48c.49-.81,1-1.6.4-2.55s-1.49-.93-2.43-.93q-15.84,0-31.67,0c-.36,0-.77,0-1.06,0h-.49a3.46,3.46,0,0,0-2.69,1.52c-1.46,2.12-4,6.08-4.33,6.63-4.06,6.64-4.49,7.36-8.57,14a1.41,1.41,0,0,0,.05,1.72C136.18,27.56,138.28,31,140.39,34.53Z"/><path class="cls-2" d="M88.94,85.79q8.16-13.4,16.44-26.73a1.34,1.34,0,0,0,0-1.69Q97,44.05,88.68,30.68a2.43,2.43,0,0,0-2.27-1.26c-2.72,0-5.44,0-8.16,0H70c-.42,0-.92-.14-1.18.34s.17.75.36,1.06C74.06,39,78.9,47.25,84,55.33c1.35,2.16,1.32,3.64,0,5.79-5,8.06-9.81,16.27-14.67,24.43-1,1.68-.63,2.32,1.3,2.32,4.88,0,9.76-.09,14.64,0A3.79,3.79,0,0,0,88.94,85.79Z"/><path class="cls-2" d="M150.77,57.35q-14-23-28-46C120.87,8.22,119.12,5,117,2.06A4.53,4.53,0,0,0,113,0C102.7.06,92.42,0,82.14,0c-.67,0-1.3,0-2,.06a1.87,1.87,0,0,0-1.81,2.31,4.81,4.81,0,0,0,.49,1q16.16,27,32.34,54.05a1.47,1.47,0,0,1,0,1.82C109.4,62.16,107.7,65.09,106,68L78.85,113.32c-.58,1-1,1.92-.41,3s1.61,1,2.63,1H97c4.8,0,9.61-.22,14.39.07a6.45,6.45,0,0,0,6.89-4,3.88,3.88,0,0,1,.3-.52q15.93-26.67,32.2-53.14A2,2,0,0,0,150.77,57.35ZM140.33,59.5q-8.6,13.68-16.85,27.59a2.74,2.74,0,0,1-2.64,1.48c-5,0-9.91,0-14.87,0-.72,0-1.32,0-1.72-.78a1.81,1.81,0,0,1,.2-2q7.92-13.2,15.82-26.4a1.74,1.74,0,0,0,0-2.14q-8-13.06-16-26.18c-.2-.33-.61-.65-.38-1.06s.73-.21,1.11-.21c2.72,0,5.44,0,8.16,0s5.44,0,8.16,0a2.29,2.29,0,0,1,2.18,1.17q8.37,13.47,16.76,27A1.31,1.31,0,0,1,140.33,59.5Z"/><path class="cls-2" d="M516.67,56.23c-2,0-3.92,0-5.88,0a2.26,2.26,0,0,0-2.49,2.2,9.8,9.8,0,0,0-.08,1.43c0,12,0,23.92,0,35.88,0,1.06-.32,1.33-1.3,1.4a156.31,156.31,0,0,1-16,.66c-8.19-.23-14.19-4.06-17.91-11.38a36.81,36.81,0,0,1-3.71-16c-.18-6.92-.1-13.84-.11-20.75a51.63,51.63,0,0,1,1.92-15c3.09-10.25,10.52-15.8,21.2-15.81,6.28,0,12.56,0,18.82.37,2.24.13,4.47.3,6.7.43,1.89.12,2.27-.25,2.27-2.11s0-3.68,0-5.52a1.94,1.94,0,0,0-1.93-2.15c-4.59-.64-9.17-1.3-13.81-1.54-6.5-.34-13-.89-19.48.34-9.75,1.87-17.36,6.84-22.24,15.64a45.73,45.73,0,0,0-5.37,21.4c-.21,8-.14,16.07-.06,24.11a49.71,49.71,0,0,0,2.91,16.68c3.75,10.32,10.61,17.48,21.28,20.7,4.61,1.39,9.35,1.45,14.12,1.37a148.61,148.61,0,0,0,21.6-1.73c2.49-.41,3.18-1.18,3.18-3.74V59.92C520.29,57.13,519.41,56.23,516.67,56.23Z"/><path class="cls-2" d="M368.73,97.51H344.38a41.8,41.8,0,0,1-6.23-.28,28,28,0,0,1-3.29-.6c-4.51-1.2-6.63-3.95-7-8.83-.24-3-.18-6-.18-9q0-33.42,0-66.83c0-2.36-1-3.31-3.35-3.31H319c-2.42,0-3.61,1.22-3.61,3.61v72a39.29,39.29,0,0,0,.71,7.5c1.56,7.85,6,13.17,13.77,15.47a39.38,39.38,0,0,0,10.29,1.5c5.2.12,10.39.09,15.59-.12a117.24,117.24,0,0,0,13.37-1c1.43-.23,1.9-.8,1.91-2.24,0-1.84,0-3.68,0-5.52S370.59,97.51,368.73,97.51Z"/><path class="cls-2" d="M450.47,93.72Q439.82,56,429.16,18.28c-1.82-6.41-5.8-9.67-12.33-10.18-7.46-.59-12.83,3-14.75,9.82q-7.6,26.88-15.2,53.78-4.65,16.41-9.31,32.81c-.59,2.06.15,3.2,2.29,3.23q3.66,0,7.32,0a2.43,2.43,0,0,0,2.64-2.11q4.06-14.64,8.1-29.3a1.35,1.35,0,0,1,1.6-1.21q15.9.07,31.8,0A1.43,1.43,0,0,1,433,76.38c2.71,9.73,5.48,19.43,8.24,29.14.48,1.71,1.14,2.21,2.9,2.23,1.12,0,2.24,0,3.36,0h4.2a2.09,2.09,0,0,0,2-2.75C452.63,101.23,451.54,97.48,450.47,93.72Zm-22-28.93H415.19c-4.48,0-9,0-13.44,0-.87,0-1.18-.08-.89-1.08q6-21.19,11.85-42.41c.34-1.22.85-2.27,2.22-2.54s2.44.43,2.91,2c.91,3.14,1.76,6.3,2.62,9.46Q425,46.84,429.54,63.4C429.93,64.79,429.93,64.79,428.51,64.79Z"/></g></g></svg>